<svg width="25" height="24" viewBox="0 0 25 24" fill="none" xmlns="http://www.w3.org/2000/svg">
<path d="M12.2091 24C10.1024 21.9 8.58798 19.2807 7.81893 16.4073C6.40767 16.0321 5.05106 15.4753 3.78308 14.751C2.47201 14.0005 1.26678 13.0786 0.199219 12.0097C2.30479 9.89809 4.93189 8.38156 7.8135 7.61429C8.58086 4.73267 10.0974 2.10558 12.2091 0C13.2779 1.06753 14.1997 2.27271 14.9502 3.58371C15.6745 4.85166 16.2313 6.20822 16.6065 7.61943C19.4798 8.38884 22.099 9.90332 24.1992 12.0097C23.1343 13.0759 21.9325 13.9958 20.6252 14.7453C19.3609 15.4687 18.0082 16.0254 16.6009 16.4016C16.2247 17.8088 15.668 19.1615 14.9446 20.4259C14.1952 21.7332 13.2753 22.9351 12.2092 24H12.2091ZM12.2048 7.99757C11.5005 8.69984 10.9947 9.57605 10.7388 10.5371C9.77767 10.7931 8.90145 11.2989 8.19922 12.0033C8.90193 12.7081 9.77882 13.2142 10.7406 13.47C10.9972 14.4283 11.5022 15.3019 12.2048 16.0023C12.9078 15.3014 13.4131 14.4272 13.6695 13.4681C14.6286 13.2117 15.5029 12.7064 16.2038 12.0033C15.5034 11.3007 14.6298 10.7956 13.6715 10.5391C13.4158 9.5773 12.9098 8.7004 12.2049 7.99771L12.2048 7.99757Z" fill="#FE4879"/>
</svg>
