<svg width="547" height="280" viewBox="0 0 547 280" fill="none" xmlns="http://www.w3.org/2000/svg">
<g clip-path="url(#clip0_2_42)">
<path d="M143.852 71.439C144.874 72.4629 146.106 73.1495 147.41 73.4989C147.759 74.8059 148.444 76.0406 149.466 77.0645C150.488 76.0406 151.173 74.8059 151.522 73.4989C152.827 73.1495 154.059 72.4629 155.081 71.439C154.059 70.4151 152.827 69.7285 151.522 69.3791C151.173 68.0721 150.488 66.8374 149.466 65.8135C148.444 66.8374 147.759 68.0721 147.41 69.3791C146.106 69.7285 144.874 70.4151 143.852 71.439Z" fill="white"/>
<path d="M154.612 46.4317C154.961 46.5762 155.989 47.0762 156.5 48.1422C156.674 48.5096 156.74 48.9433 156.74 49.4492L154.227 84.4732C142.517 88.4725 142.727 86.0693 142.727 86.0693L144.669 59.0138L145.306 50.1298L126.941 55.9963C127.29 56.1408 128.318 56.6407 128.829 57.7068C129.003 58.0742 129.069 58.5079 129.069 59.0138L127.128 86.0693C127.128 86.0693 124.904 98.2659 154.858 88.1593C155.706 89.93 157.215 90.9178 158.567 91.4719C160.479 92.2549 162.631 92.3272 164.573 91.6225C166.821 90.8094 168.114 89.1952 168.853 87.7678C169.436 86.6415 169.755 85.3947 169.845 84.1298L172.334 49.4553L172.971 40.5713L154.606 46.4377L154.612 46.4317Z" fill="white"/>
<path d="M344.801 76.9985C343.99 94.8568 342.186 100.603 330.566 112.625L330.416 114.685C330.416 114.685 343.13 107.867 351.618 95.6759C357.059 100.645 358.525 103.108 359.451 113.137C359.644 115.227 361.399 116.829 363.497 116.829C365.968 116.829 368.589 114.456 368.246 111.288C368.041 109.433 367.621 108.324 366.809 106.716C366.809 106.716 366.491 106.084 366.196 105.602C363.623 101.229 358.561 97.0552 352.358 94.5857C355.291 90.1227 357.624 84.985 358.58 79.2391L354.594 76.5407C355.941 76.5407 357.642 76.5407 359.86 76.5588H358.928C363.701 76.6913 365.354 76.9684 368.096 76.9202C372.328 76.8479 370.218 72.5957 367.669 72.6981C350.662 73.3787 351.33 74.5893 333.398 71.7705L337.582 77.402C340.924 77.2515 343.172 77.119 344.789 77.0105L344.801 76.9985Z" fill="white"/>
<path d="M245.437 82.1419C247.427 82.7141 255.657 85.3883 257.995 90.8452C258.783 92.6822 260.61 93.8567 262.606 93.8567H262.822C266.129 93.8567 267.722 89.761 265.257 87.5446C265.221 87.5144 265.203 87.4964 265.203 87.4964C261.548 83.9187 255.062 81.2324 247.054 80.1603C249.447 76.8477 250.932 72.8905 251.244 68.6684C251.25 68.578 251.256 68.4877 251.262 68.3973L251.833 60.459L235.422 65.699C235.735 65.8315 236.655 66.2772 237.105 67.2229C237.262 67.5541 237.322 67.9396 237.322 68.3913C236.12 85.1353 215.043 90.3212 215.043 90.3212L214.791 93.8507C224.031 92.6702 232.2 90.3332 238.728 87.1591C241.307 85.9063 243.574 84.1897 245.449 82.1359L245.437 82.1419Z" fill="white"/>
<path d="M213.872 138.228C215.459 136.337 215.693 126.688 210.752 123.081C203.695 117.925 194.094 122.153 194.094 122.153C190.193 123.562 187.957 125.189 183.214 128.321C175.122 133.657 169.033 139.186 157.912 143.011C120.779 155.774 120.713 127.2 120.713 127.2C120.683 117.684 125.793 110.197 136.391 110.197H173.614C178.735 110.197 181.182 106.698 181.501 102.205L181.567 101.271H142.853C135.754 101.277 131.095 102.229 131.095 102.229L126.358 95.8564C132.375 97.1333 139.168 97.3261 141.801 97.3502H197.088L196.667 103.536C196.241 109.487 190.969 114.034 184.206 114.034L152.255 114.088C146.201 114.1 141.825 116.913 139.174 122.37C137.13 126.574 138.332 131.784 142.456 134.579C144.23 135.777 146.268 136.506 148.396 136.717C153.187 137.18 162.24 137.367 173.181 130.26C176.066 128.387 178.777 126.134 181.236 123.731C185.252 119.81 193.926 111.733 205.859 111.685C208.931 111.673 211.66 112.173 214.022 113.118C218.333 114.841 222.264 119.057 222.685 123.677C223.16 128.899 220.647 134.44 213.878 138.234L213.872 138.228Z" fill="white"/>
<path d="M183.322 46.3171C183.664 46.4616 184.662 46.9435 185.155 47.9795C185.33 48.3348 185.39 48.7444 185.39 49.2383L184.56 60.9892L173.679 61.0012L173.667 60.9892V61.0012L173.704 61.1639L174.762 65.9401L175.164 67.7531C175.267 67.5603 175.507 67.1447 175.91 66.7532C176.385 66.2834 177.034 66.0305 177.695 66.0305L184.193 66.0184L183.598 74.4687L172.85 74.4868L172.838 74.4748V74.4868L172.874 74.6555L173.932 79.4257L174.335 81.2386C174.437 81.0459 174.677 80.6303 175.08 80.2388C175.555 79.769 176.204 79.516 176.872 79.516L183.244 79.498L183.063 82.0698L183.015 82.7926C182.817 84.8645 181.861 90.7912 177.34 92.6101H182.438V92.592C196.09 92.6222 197.815 88.918 198.453 79.3655L200.575 49.2624L201.194 40.6133L183.31 46.3231L183.322 46.3171Z" fill="white"/>
<path d="M268.715 100.326C251.372 101.018 224.375 102.253 206.088 99.3799L210.356 105.12C218.123 104.77 226.449 104.536 234.714 104.397L233.338 123.87L233.356 123.592C233.115 126.953 230.308 128.411 230.308 128.411H233.019C246.773 128.459 247.176 124.767 247.813 115.184L248.396 106.915L244.489 104.277L248.583 104.253C252.694 104.234 256.698 104.234 260.497 104.253H261.201C264.681 104.265 266.358 104.668 269.154 104.62C273.47 104.548 271.318 100.211 268.721 100.313L268.715 100.326Z" fill="white"/>
<path d="M207.729 142.854C209.081 144.595 208.582 147.13 206.671 148.239C167.476 170.909 132.664 180.823 120.828 167.223C116.409 162.146 117.185 154.798 119.475 149.238C117.575 156.093 118.615 161.549 121.723 165.007C131.678 176.071 168.642 165.513 202.805 142.095C204.392 141.005 206.544 141.336 207.729 142.854V142.854Z" fill="white"/>
<path d="M279.511 50.7742C280.96 49.3226 281.922 47.5759 282.415 45.7269C284.26 45.233 286.004 44.2633 287.446 42.8177C285.998 41.3662 284.254 40.4025 282.415 39.9086C281.922 38.0596 280.954 36.3129 279.511 34.8613C278.063 36.3129 277.101 38.0596 276.608 39.9086C274.762 40.4025 273.019 41.3722 271.576 42.8177C273.025 44.2693 274.768 45.233 276.608 45.7269C277.101 47.5759 278.069 49.3226 279.511 50.7742Z" fill="white"/>
<path d="M263.4 57.4834C264.374 56.5076 265.017 55.3392 265.348 54.0984C266.586 53.7671 267.759 53.1167 268.726 52.147C267.753 51.1712 266.586 50.5268 265.348 50.1955C265.017 48.9547 264.368 47.7803 263.4 46.8105C262.426 47.7863 261.783 48.9547 261.453 50.1955C260.214 50.5268 259.042 51.1772 258.074 52.147C259.048 53.1227 260.214 53.7671 261.453 54.0984C261.783 55.3392 262.432 56.5137 263.4 57.4834Z" fill="white"/>
<path d="M289.159 108.119C289.159 108.119 291.485 109.727 291.756 113.437V113.407L291.329 119.467C282.072 119.358 272.375 118.87 264.801 117.684L269.069 123.424C285.234 122.689 303.857 122.472 319.204 122.562H319.907C323.388 122.574 325.065 122.978 327.861 122.93C332.177 122.858 330.025 118.521 327.428 118.623C321.26 118.87 312.976 119.183 305.192 119.358L305.666 112.691C306.256 109.51 308.931 108.125 308.931 108.125H289.159V108.119Z" fill="white"/>
<path d="M295.79 72.5838L295.766 72.5537L295.79 72.5838Z" fill="white"/>
<path d="M300.593 74.415C300.557 74.4512 300.52 74.4933 300.484 74.5295C300.52 74.4933 300.557 74.4512 300.593 74.415Z" fill="white"/>
<path d="M295.429 72.0592L295.418 72.0479L295.429 72.0592Z" fill="white"/>
<path d="M296.175 73.0894C296.175 73.0894 296.145 73.0532 296.133 73.0352C296.145 73.0532 296.163 73.0713 296.175 73.0894Z" fill="white"/>
<path d="M296.572 73.589C296.572 73.589 296.53 73.5348 296.506 73.5107C296.53 73.5348 296.548 73.5649 296.572 73.589Z" fill="white"/>
<path d="M296.981 74.0711C296.951 74.035 296.921 74.0049 296.896 73.9688C296.927 74.0049 296.957 74.035 296.981 74.0711Z" fill="white"/>
<path d="M301.014 73.9453C300.978 73.9815 300.948 74.0236 300.912 74.0598C300.948 74.0236 300.978 73.9815 301.014 73.9453Z" fill="white"/>
<path d="M302.504 71.9932L302.486 72.0233L302.504 71.9932Z" fill="white"/>
<path d="M302.15 72.5049C302.15 72.5049 302.125 72.541 302.107 72.5591C302.119 72.541 302.131 72.523 302.15 72.5049Z" fill="white"/>
<path d="M301.783 72.999C301.783 72.999 301.741 73.0532 301.723 73.0773C301.741 73.0532 301.765 73.0231 301.783 72.999Z" fill="white"/>
<path d="M301.404 73.4746C301.374 73.5107 301.35 73.5409 301.32 73.577C301.35 73.5409 301.374 73.5107 301.404 73.4746Z" fill="white"/>
<path d="M297.401 74.535C297.371 74.4989 297.341 74.4627 297.305 74.4326C297.335 74.4688 297.365 74.5049 297.401 74.535Z" fill="white"/>
<path d="M325.144 70.1504C318.291 70.4274 310.819 70.7828 303.172 70.9273C303.064 71.108 302.956 71.2887 302.841 71.4694C302.733 71.6501 302.619 71.8248 302.505 71.9934L302.487 72.0235C302.379 72.1861 302.27 72.3427 302.156 72.4993C302.144 72.5174 302.132 72.5355 302.114 72.5535C302.006 72.7041 301.898 72.8487 301.789 72.9932C301.771 73.0173 301.747 73.0474 301.729 73.0715C301.627 73.204 301.519 73.3365 301.411 73.4691C301.381 73.5052 301.357 73.5353 301.327 73.5714C301.224 73.6979 301.122 73.8184 301.014 73.9388C300.978 73.975 300.948 74.0171 300.912 74.0533C300.81 74.1737 300.701 74.2882 300.593 74.4086C300.557 74.4448 300.521 74.4869 300.485 74.5231C300.341 74.6737 300.196 74.8242 300.046 74.9748L299.89 75.1314L299.565 75.4566C305.841 75.8783 309.135 81.2508 309.135 87.9544C309.135 94.6581 305.565 99.9704 299.355 99.9704C293.145 99.9704 288.979 94.8568 288.979 88.2978C288.979 81.7387 291.823 75.7277 298.297 75.4446L298.189 75.3362L297.834 74.9808C297.69 74.8363 297.545 74.6857 297.401 74.5351C297.371 74.499 297.341 74.4629 297.305 74.4327C297.197 74.3123 297.083 74.1918 296.98 74.0714C296.95 74.0352 296.92 74.0051 296.896 73.969C296.788 73.8425 296.68 73.716 296.572 73.5895C296.548 73.5654 296.529 73.5353 296.505 73.5112C296.391 73.3727 296.283 73.2342 296.175 73.0956C296.163 73.0776 296.145 73.0595 296.133 73.0414C296.019 72.8908 295.904 72.7403 295.796 72.5897L295.772 72.5596C295.658 72.397 295.544 72.2343 295.429 72.0717L295.417 72.0597C295.303 71.891 295.189 71.7163 295.081 71.5417C294.967 71.361 294.858 71.1863 294.756 71.0056C286.316 70.9454 277.858 70.4937 269.959 69.2529L274.107 74.8303C276.499 74.7218 278.82 74.6255 281.092 74.5412L282.228 74.5231C278.219 76.6974 275.64 79.7029 274.419 83.0577C273.884 84.437 273.614 85.9789 273.614 87.6774C273.614 97.3443 281.753 104.445 298.718 104.445C315.682 104.445 324.164 97.5491 324.501 88.5146C324.525 88.1652 324.537 87.8159 324.537 87.4545C324.537 81.7748 321.266 76.9263 314.906 73.9931L315.544 73.981C316.163 73.981 316.788 73.981 317.419 73.9931H317.167C320.545 74.0051 322.86 74.3966 325.577 74.3484C329.773 74.2761 327.681 70.066 325.156 70.1684L325.144 70.1504Z" fill="white"/>
<path d="M301.723 73.0771C301.621 73.2097 301.513 73.3422 301.404 73.4747C301.513 73.3422 301.621 73.2097 301.723 73.0771Z" fill="white"/>
<path d="M302.835 71.4814C302.726 71.6561 302.612 71.8248 302.498 71.9994C302.612 71.8308 302.726 71.6561 302.835 71.4814Z" fill="white"/>
<path d="M302.481 72.0234C302.373 72.1861 302.265 72.3427 302.15 72.4993C302.265 72.3427 302.373 72.18 302.481 72.0234Z" fill="white"/>
<path d="M302.842 71.4698C302.956 71.2891 303.064 71.1084 303.172 70.9277C303.064 71.1084 302.956 71.2891 302.842 71.4698Z" fill="white"/>
<path d="M302.114 72.5596C302.005 72.7101 301.897 72.8547 301.789 72.9992C301.897 72.8547 302.011 72.7101 302.114 72.5596Z" fill="white"/>
<path d="M294.75 70.9873C294.858 71.168 294.966 71.3487 295.075 71.5234C294.96 71.3487 294.852 71.168 294.75 70.9873Z" fill="white"/>
<path d="M295.417 72.0414C295.302 71.8728 295.188 71.6981 295.08 71.5234C295.188 71.6981 295.302 71.8728 295.417 72.0414Z" fill="white"/>
<path d="M296.506 73.5113C296.392 73.3728 296.284 73.2342 296.176 73.0957C296.284 73.2342 296.392 73.3728 296.506 73.5113Z" fill="white"/>
<path d="M297.4 74.5352C297.545 74.6857 297.689 74.8363 297.833 74.9809L298.188 75.3362L297.833 74.9809C297.689 74.8363 297.545 74.6857 297.4 74.5352Z" fill="white"/>
<path d="M296.134 73.0357C296.019 72.8851 295.905 72.7346 295.797 72.584C295.905 72.7346 296.019 72.8912 296.134 73.0357Z" fill="white"/>
<path d="M301.326 73.5771C301.224 73.7036 301.122 73.8241 301.014 73.9445C301.122 73.8241 301.224 73.7036 301.326 73.5771Z" fill="white"/>
<path d="M295.772 72.5474C295.658 72.3848 295.544 72.2222 295.43 72.0596C295.544 72.2222 295.658 72.3908 295.772 72.5474Z" fill="white"/>
<path d="M299.896 75.1435L300.053 74.9869C300.203 74.8363 300.347 74.6857 300.492 74.5352C300.347 74.6857 300.203 74.8363 300.053 74.9869L299.896 75.1435Z" fill="white"/>
<path d="M300.912 74.0654C300.81 74.1859 300.702 74.3003 300.594 74.4208C300.702 74.3063 300.81 74.1859 300.912 74.0654Z" fill="white"/>
<path d="M297.311 74.4327C297.203 74.3122 297.089 74.1917 296.986 74.0713C297.095 74.1917 297.203 74.3122 297.311 74.4327Z" fill="white"/>
<path d="M296.897 73.9693C296.789 73.8428 296.68 73.7163 296.572 73.5898C296.68 73.7163 296.789 73.8428 296.897 73.9693Z" fill="white"/>
<path d="M303.725 55.996C302.913 52.9544 301.326 50.0814 298.946 47.6963C296.565 50.0814 294.972 52.9544 294.167 55.996C291.131 56.8091 288.263 58.3992 285.883 60.7843C288.263 63.1695 291.131 64.7656 294.167 65.5726C294.978 68.6143 296.565 71.4873 298.946 73.8724C301.326 71.4873 302.919 68.6143 303.725 65.5726C306.76 64.7595 309.628 63.1695 312.008 60.7843C309.628 58.3992 306.76 56.8031 303.725 55.996Z" fill="white"/>
<path d="M397.629 88.5743L397.617 88.5864L387.668 88.5683L389.134 68.3249L389.706 60.4287L373.361 65.6447C373.673 65.7711 374.581 66.2168 375.032 67.1625C375.188 67.4877 375.29 67.8732 375.29 68.3249L372.838 102.379L372.795 102.463L371.287 123.869L371.305 123.592C371.064 126.953 368.257 128.411 368.257 128.411H370.968C384.722 128.459 385.125 124.767 385.762 115.184L386.345 106.914L387.307 93.5915L393.589 93.6036C394.256 93.6036 394.905 93.8565 395.38 94.3263C395.783 94.7178 396.024 95.1334 396.126 95.3262L396.529 93.5132L397.587 88.743L397.623 88.5743V88.5623L397.629 88.5743Z" fill="white"/>
<path d="M328.047 6.75205C312.676 -11.9736 268.582 9.92619 208.197 51.6959C269.165 14.7868 308.883 -6.20349 321.452 9.10706C326.767 15.5818 319.944 29.8745 309.045 44.0948C307.776 45.7512 307.927 48.0881 309.4 49.5638C311.197 51.3646 314.173 51.1358 315.675 49.0819C329.327 30.4346 335.441 15.7565 328.047 6.75205V6.75205Z" fill="white"/>
</g>
<path d="M59.9489 148.24C68.6689 148.24 75.0289 150.36 79.0289 154.6C83.1089 158.76 85.1489 165.04 85.1489 173.44V192.04C85.1489 200.44 83.1089 206.76 79.0289 211C75.0289 215.16 68.6689 217.24 59.9489 217.24H44.9489L36.1889 195.16H51.5489C57.1489 195.16 59.9489 192.36 59.9489 186.76V178.72C59.9489 173.12 57.1489 170.32 51.5489 170.32H34.0289V251.32H8.82891V164.32L0.908906 148.24H59.9489ZM130.515 253.12C125.315 253.12 120.475 252.6 115.995 251.56C111.515 250.52 107.595 248.92 104.235 246.76C100.955 244.6 98.3555 241.88 96.4355 238.6C94.5155 235.32 93.5555 231.44 93.5555 226.96V172.6C93.5555 168.12 94.5155 164.24 96.4355 160.96C98.3555 157.68 100.955 154.96 104.235 152.8C107.595 150.64 111.515 149.04 115.995 148C120.475 146.96 125.315 146.44 130.515 146.44C136.915 146.44 142.395 147.08 146.955 148.36C151.515 149.56 155.315 151.48 158.355 154.12C161.395 156.76 163.755 160.12 165.435 164.2C167.115 168.28 168.275 173.12 168.915 178.72L143.595 182.32C142.715 177.76 141.435 174.36 139.755 172.12C138.075 169.8 135.395 168.64 131.715 168.64C128.515 168.64 125.755 169.44 123.435 171.04C121.115 172.64 119.955 175.04 119.955 178.24V221.32C119.955 224.52 121.115 226.92 123.435 228.52C125.755 230.12 128.515 230.92 131.715 230.92C135.715 230.92 138.675 229.68 140.595 227.2C142.515 224.64 143.955 220.92 144.915 216.04L170.115 219.64C169.395 225.48 168.155 230.52 166.395 234.76C164.715 238.92 162.315 242.36 159.195 245.08C156.075 247.8 152.155 249.8 147.435 251.08C142.715 252.44 137.075 253.12 130.515 253.12ZM208.22 257.92C204.62 257.92 201.34 257.32 198.38 256.12C195.5 255 193.02 253.4 190.94 251.32C188.94 249.32 187.38 246.92 186.26 244.12C185.22 241.32 184.7 238.24 184.7 234.88C184.7 231.52 185.22 228.44 186.26 225.64C187.38 222.84 188.94 220.44 190.94 218.44C193.02 216.36 195.5 214.76 198.38 213.64C201.34 212.44 204.62 211.84 208.22 211.84H261.86C265.62 211.84 268.94 212.44 271.82 213.64C274.78 214.76 277.26 216.36 279.26 218.44C281.26 220.44 282.78 222.84 283.82 225.64C284.86 228.44 285.38 231.52 285.38 234.88C285.38 238.24 284.86 241.32 283.82 244.12C282.78 247 281.26 249.44 279.26 251.44C277.26 253.52 274.78 255.12 271.82 256.24C268.94 257.36 265.62 257.92 261.86 257.92H208.22ZM246.86 148.24V205H193.22C191.46 205 189.98 204.36 188.78 203.08L182.06 196C180.86 194.72 180.26 193.24 180.26 191.56V161.32L174.14 148.24H205.46V157.48H221.66V148.24H246.86ZM282.38 167.08H294.86V188.08H282.38V208.24H255.98V159.52L249.86 146.44H282.38V167.08ZM254.06 238.72C255.58 238.72 256.78 238.4 257.66 237.76C258.54 237.04 258.98 236.08 258.98 234.88C258.98 233.68 258.54 232.76 257.66 232.12C256.78 231.4 255.58 231.04 254.06 231.04H216.02C214.5 231.04 213.3 231.4 212.42 232.12C211.54 232.76 211.1 233.68 211.1 234.88C211.1 236.08 211.54 237.04 212.42 237.76C213.3 238.4 214.5 238.72 216.02 238.72H254.06ZM221.66 176.68H205.46V185.8H221.66V176.68Z" fill="#FE4879"/>
<path d="M340.931 257.92C337.331 257.92 334.051 257.32 331.091 256.12C328.211 254.92 325.731 253.24 323.651 251.08C321.651 248.92 320.091 246.36 318.971 243.4C317.931 240.44 317.411 237.2 317.411 233.68C317.411 230.16 317.931 226.92 318.971 223.96C320.091 221 321.651 218.44 323.651 216.28C325.731 214.12 328.211 212.44 331.091 211.24C334.051 210.04 337.331 209.44 340.931 209.44H394.571C398.331 209.44 401.651 210.04 404.531 211.24C407.491 212.44 409.971 214.12 411.971 216.28C413.971 218.44 415.491 221 416.531 223.96C417.571 226.92 418.091 230.16 418.091 233.68C418.091 237.2 417.571 240.44 416.531 243.4C415.491 246.36 413.971 248.92 411.971 251.08C409.971 253.24 407.491 254.92 404.531 256.12C401.651 257.32 398.331 257.92 394.571 257.92H340.931ZM375.731 159.52C376.291 160.24 376.691 160.96 376.931 161.68C377.251 162.4 377.331 163.2 377.171 164.08L372.491 204.88L346.451 206.44L350.531 170.44H314.171L310.571 148.24H364.331C366.171 148.24 367.651 148.96 368.771 150.4L375.731 159.52ZM415.091 165.88H427.571V186.88H415.091V205.84H388.691V159.52L382.571 146.44H415.091V165.88ZM386.771 237.52C388.291 237.52 389.491 237.2 390.371 236.56C391.251 235.84 391.691 234.88 391.691 233.68C391.691 232.48 391.251 231.56 390.371 230.92C389.491 230.2 388.291 229.84 386.771 229.84H348.731C347.211 229.84 346.011 230.2 345.131 230.92C344.251 231.56 343.811 232.48 343.811 233.68C343.811 234.88 344.251 235.84 345.131 236.56C346.011 237.2 347.211 237.52 348.731 237.52H386.771ZM539.771 215.56V257.92H452.171C450.411 257.92 448.931 257.28 447.731 256L441.011 248.92C439.811 247.64 439.211 246.16 439.211 244.48V215.56H539.771ZM507.491 192.64V210.64H445.931C444.171 210.64 442.691 210 441.491 208.72L434.771 201.64C433.571 200.36 432.971 198.88 432.971 197.2V170.68H477.491V166.24H432.971V148.24H490.331C492.091 148.24 493.571 148.88 494.771 150.16L501.491 157.24C502.691 158.6 503.291 160.08 503.291 161.68V188.08H458.771V192.64H507.491ZM539.771 146.44V212.56H513.371V159.52L507.251 146.44H539.771ZM513.371 233.56H465.611V239.92H513.371V233.56Z" fill="white"/>
<path d="M206.669 148.784C208.58 147.676 209.079 145.141 207.727 143.4C206.543 141.882 204.39 141.551 202.803 142.641C173.899 162.454 142.989 173.062 128.129 169.157L124.129 170.607C138.307 179.687 170.636 169.626 206.669 148.784Z" fill="white"/>
<defs>
<clipPath id="clip0_2_42">
<rect width="280" height="173.409" fill="white" transform="translate(117.629)"/>
</clipPath>
</defs>
</svg>
