<svg width="296" height="170" viewBox="0 0 296 170" fill="none" xmlns="http://www.w3.org/2000/svg">
<g clip-path="url(#clip0_28_476)">
<path d="M73.2314 46.5525C73.903 47.2197 74.7128 47.6672 75.5701 47.8948C75.7992 48.7465 76.2495 49.5511 76.9211 50.2183C77.5926 49.5511 78.043 48.7465 78.2721 47.8948C79.1293 47.6672 79.9392 47.2197 80.6107 46.5525C79.9392 45.8853 79.1293 45.4379 78.2721 45.2102C78.043 44.3585 77.5926 43.5539 76.9211 42.8867C76.2495 43.5539 75.7992 44.3585 75.5701 45.2102C74.7128 45.4379 73.903 45.8853 73.2314 46.5525Z" fill="white"/>
<path d="M80.3027 30.2564C80.5318 30.3506 81.2073 30.6763 81.5431 31.371C81.6576 31.6104 81.7011 31.893 81.7011 32.2227L80.0498 55.0456C72.3545 57.6517 72.4928 56.0857 72.4928 56.0857L73.7688 38.4554L74.1875 32.6662L62.1191 36.489C62.3483 36.5832 63.0238 36.909 63.3596 37.6037C63.4741 37.8431 63.5176 38.1257 63.5176 38.4554L62.2416 56.0857C62.2416 56.0857 60.78 64.0335 80.4646 57.4476C81.0216 58.6015 82.0132 59.2452 82.902 59.6063C84.1582 60.1165 85.5724 60.1636 86.8484 59.7044C88.3258 59.1746 89.1752 58.1227 89.6611 57.1925C90.0443 56.4586 90.2536 55.6461 90.3129 54.8219L91.9483 32.2266L92.3671 26.4375L80.2987 30.2603L80.3027 30.2564Z" fill="white"/>
<path d="M205.284 50.1753C204.751 61.8125 203.566 65.5568 195.93 73.3907L195.831 74.733C195.831 74.733 204.186 70.2901 209.764 62.3462C213.339 65.5842 214.303 67.1895 214.911 73.7243C215.038 75.0863 216.191 76.1303 217.57 76.1303C219.193 76.1303 220.916 74.5839 220.691 72.5194C220.556 71.3106 220.28 70.5884 219.747 69.5405C219.747 69.5405 219.537 69.1284 219.344 68.8144C217.653 65.9649 214.327 63.245 210.25 61.6358C212.178 58.7275 213.71 55.3796 214.339 51.6354L211.719 49.877C212.604 49.877 213.722 49.877 215.18 49.8888H214.568C217.704 49.9751 218.791 50.1557 220.592 50.1243C223.373 50.0772 221.986 47.3063 220.311 47.373C209.136 47.8165 209.574 48.6054 197.79 46.7686L200.54 50.4383C202.736 50.3402 204.214 50.2538 205.276 50.1832L205.284 50.1753Z" fill="white"/>
<path d="M139.989 53.5269C141.296 53.8997 146.704 55.6424 148.241 59.1983C148.758 60.3953 149.959 61.1607 151.271 61.1607H151.413C153.586 61.1607 154.633 58.4918 153.013 57.0475C152.989 57.0278 152.977 57.0161 152.977 57.0161C150.576 54.6847 146.313 52.9342 141.051 52.2356C142.623 50.0769 143.599 47.4983 143.805 44.747C143.809 44.6881 143.813 44.6293 143.816 44.5704L144.192 39.3975L133.407 42.8121C133.613 42.8984 134.217 43.1889 134.513 43.8051C134.616 44.0209 134.656 44.2721 134.656 44.5665C133.865 55.4775 120.016 58.8568 120.016 58.8568L119.85 61.1568C125.921 60.3875 131.29 58.8647 135.58 56.7963C137.275 55.9799 138.764 54.8613 139.996 53.5229L139.989 53.5269Z" fill="white"/>
<path d="M119.245 90.0751C120.288 88.8427 120.442 82.5551 117.195 80.2041C112.557 76.8445 106.249 79.5997 106.249 79.5997C103.685 80.5181 102.215 81.5778 99.0984 83.6187C93.7812 87.0962 89.7795 90.6992 82.4713 93.1914C58.0699 101.508 58.0265 82.8887 58.0265 82.8887C58.0067 76.6875 61.3645 71.8089 68.329 71.8089H92.7896C96.1554 71.8089 97.7632 69.5286 97.9725 66.6006L98.016 65.9923H72.5756C67.9103 65.9962 64.8487 66.6163 64.8487 66.6163L61.7358 62.4639C65.6902 63.2959 70.1541 63.4215 71.8843 63.4372H108.216L107.939 67.468C107.659 71.3458 104.194 74.309 99.7502 74.309L78.754 74.3444C74.776 74.3522 71.9001 76.1851 70.158 79.741C68.8149 82.4805 69.605 85.8755 72.3149 87.6967C73.4803 88.4777 74.8194 88.9526 76.2179 89.09C79.3663 89.3922 85.3156 89.5139 92.5052 84.8825C94.4014 83.6619 96.183 82.194 97.7987 80.628C100.438 78.0729 106.138 72.8097 113.979 72.7783C115.998 72.7705 117.791 73.0963 119.344 73.7125C122.176 74.835 124.76 77.5823 125.036 80.5927C125.349 83.9955 123.697 87.6064 119.249 90.079L119.245 90.0751Z" fill="white"/>
<path d="M99.1697 30.1817C99.3949 30.2759 100.051 30.5898 100.375 31.2649C100.489 31.4965 100.529 31.7634 100.529 32.0852L99.9835 39.7426L92.8333 39.7504L92.8254 39.7426V39.7504L92.8491 39.8564L93.5444 42.9688L93.8091 44.1502C93.8762 44.0246 94.0342 43.7538 94.2989 43.4986C94.611 43.1925 95.0376 43.0277 95.4722 43.0277L99.7425 43.0198L99.3514 48.5264L92.2882 48.5381L92.2803 48.5303V48.5381L92.304 48.648L92.9992 51.7565L93.2639 52.9379C93.3311 52.8123 93.4891 52.5415 93.7538 52.2864C94.0658 51.9802 94.4925 51.8154 94.931 51.8154L99.1184 51.8036L98.9998 53.4795L98.9682 53.9505C98.8379 55.3006 98.2098 59.1627 95.2391 60.348H98.589V60.3362C107.56 60.3558 108.694 57.942 109.113 51.7173L110.507 32.1009L110.914 26.4648L99.1618 30.1856L99.1697 30.1817Z" fill="white"/>
<path d="M155.285 65.376C143.888 65.8273 126.147 66.6319 114.13 64.7598L116.935 68.5001C122.039 68.2725 127.51 68.1194 132.942 68.0292L132.037 80.7182L132.049 80.5376C131.891 82.7277 130.046 83.6775 130.046 83.6775H131.828C140.866 83.7089 141.131 81.303 141.549 75.0585L141.933 69.6697L139.365 67.9507L142.055 67.935C144.757 67.9232 147.388 67.9232 149.885 67.935H150.347C152.634 67.9428 153.736 68.2058 155.573 68.1744C158.409 68.1273 156.995 65.3014 155.289 65.3681L155.285 65.376Z" fill="white"/>
<path d="M162.38 33.0862C163.332 32.1403 163.964 31.0021 164.288 29.7972C165.5 29.4754 166.646 28.8435 167.594 27.9015C166.642 26.9556 165.496 26.3276 164.288 26.0058C163.964 24.8009 163.328 23.6627 162.38 22.7168C161.427 23.6627 160.795 24.8009 160.471 26.0058C159.259 26.3276 158.113 26.9595 157.165 27.9015C158.117 28.8474 159.263 29.4754 160.471 29.7972C160.795 31.0021 161.431 32.1403 162.38 33.0862Z" fill="white"/>
<path d="M151.792 37.4587C152.432 36.8229 152.855 36.0615 153.072 35.253C153.886 35.0371 154.656 34.6132 155.292 33.9813C154.652 33.3455 153.886 32.9255 153.072 32.7097C152.855 31.9011 152.428 31.1358 151.792 30.5039C151.152 31.1397 150.729 31.9011 150.512 32.7097C149.698 32.9255 148.928 33.3494 148.292 33.9813C148.932 34.6171 149.698 35.0371 150.512 35.253C150.729 36.0615 151.156 36.8268 151.792 37.4587Z" fill="white"/>
<path d="M168.72 70.4551C168.72 70.4551 170.249 71.503 170.426 73.9207V73.9011L170.146 77.8495C164.062 77.7788 157.69 77.4609 152.713 76.6877L155.518 80.4281C166.14 79.9493 178.378 79.808 188.464 79.8668H188.926C191.213 79.8747 192.315 80.1377 194.152 80.1063C196.989 80.0592 195.574 77.2333 193.868 77.3C189.815 77.4609 184.371 77.665 179.255 77.7788L179.567 73.434C179.955 71.3617 181.713 70.459 181.713 70.459H168.72V70.4551Z" fill="white"/>
<path d="M173.078 47.2983L173.062 47.2783L173.078 47.2983Z" fill="white"/>
<path d="M176.233 48.4912C176.21 48.5148 176.186 48.5422 176.162 48.5658C176.186 48.5422 176.21 48.5148 176.233 48.4912Z" fill="white"/>
<path d="M172.84 46.9572L172.832 46.9492L172.84 46.9572Z" fill="white"/>
<path d="M173.33 47.6281C173.33 47.6281 173.311 47.6045 173.303 47.5928C173.311 47.6045 173.322 47.6163 173.33 47.6281Z" fill="white"/>
<path d="M173.59 47.9534C173.59 47.9534 173.563 47.918 173.547 47.9023C173.563 47.918 173.575 47.9377 173.59 47.9534Z" fill="white"/>
<path d="M173.859 48.2679C173.839 48.2443 173.82 48.2247 173.804 48.2012C173.823 48.2247 173.843 48.2443 173.859 48.2679Z" fill="white"/>
<path d="M176.511 48.1855C176.487 48.2091 176.467 48.2366 176.443 48.2601C176.467 48.2366 176.487 48.2091 176.511 48.1855Z" fill="white"/>
<path d="M177.49 46.9141L177.478 46.934L177.49 46.9141Z" fill="white"/>
<path d="M177.257 47.2471C177.257 47.2471 177.241 47.2706 177.229 47.2824C177.237 47.2706 177.245 47.2588 177.257 47.2471Z" fill="white"/>
<path d="M177.016 47.5693C177.016 47.5693 176.988 47.6047 176.977 47.6204C176.988 47.6047 177.004 47.585 177.016 47.5693Z" fill="white"/>
<path d="M176.767 47.8789C176.747 47.9025 176.732 47.9221 176.712 47.9456C176.732 47.9221 176.747 47.9025 176.767 47.8789Z" fill="white"/>
<path d="M174.135 48.5697C174.116 48.5461 174.096 48.5226 174.072 48.5029C174.092 48.5265 174.112 48.55 174.135 48.5697Z" fill="white"/>
<path d="M192.367 45.7127C187.863 45.8933 182.953 46.1248 177.928 46.219C177.857 46.3368 177.786 46.4545 177.711 46.5723C177.64 46.69 177.565 46.8038 177.49 46.9137L177.478 46.9334C177.407 47.0393 177.336 47.1414 177.261 47.2434C177.253 47.2552 177.245 47.267 177.233 47.2787C177.162 47.3769 177.091 47.4711 177.02 47.5653C177.008 47.581 176.992 47.6006 176.98 47.6163C176.913 47.7026 176.842 47.789 176.771 47.8753C176.751 47.8989 176.735 47.9185 176.716 47.942C176.648 48.0245 176.581 48.103 176.51 48.1815C176.486 48.205 176.467 48.2325 176.443 48.256C176.376 48.3345 176.305 48.4091 176.234 48.4876C176.21 48.5111 176.186 48.5386 176.162 48.5622C176.068 48.6603 175.973 48.7584 175.874 48.8565L175.771 48.9586L175.558 49.1705C179.682 49.4452 181.847 52.9462 181.847 57.3145C181.847 61.6829 179.501 65.1446 175.42 65.1446C171.339 65.1446 168.601 61.8124 168.601 57.5383C168.601 53.2641 170.47 49.3471 174.725 49.1627L174.653 49.092L174.42 48.8604C174.326 48.7663 174.231 48.6681 174.136 48.57C174.116 48.5465 174.096 48.5229 174.073 48.5033C174.002 48.4248 173.927 48.3463 173.859 48.2678C173.84 48.2443 173.82 48.2246 173.804 48.2011C173.733 48.1187 173.662 48.0362 173.591 47.9538C173.575 47.9381 173.563 47.9185 173.547 47.9028C173.472 47.8125 173.401 47.7222 173.33 47.632C173.322 47.6202 173.31 47.6084 173.302 47.5966C173.227 47.4985 173.152 47.4004 173.081 47.3023L173.065 47.2827C172.99 47.1767 172.915 47.0707 172.84 46.9648L172.832 46.9569C172.757 46.847 172.682 46.7332 172.611 46.6194C172.536 46.5016 172.465 46.3878 172.398 46.2701C166.851 46.2308 161.293 45.9364 156.103 45.1279L158.828 48.7623C160.401 48.6917 161.925 48.6289 163.419 48.5739L164.165 48.5622C161.53 49.979 159.836 51.9375 159.034 54.1237C158.682 55.0224 158.504 56.0272 158.504 57.134C158.504 63.4334 163.853 68.0608 175.001 68.0608C186.149 68.0608 191.723 63.5668 191.944 57.6796C191.96 57.4519 191.968 57.2243 191.968 56.9888C191.968 53.2877 189.819 50.1282 185.639 48.2168L186.058 48.2089C186.465 48.2089 186.876 48.2089 187.291 48.2168H187.125C189.345 48.2246 190.866 48.4797 192.651 48.4483C195.409 48.4012 194.034 45.6578 192.375 45.7245L192.367 45.7127Z" fill="white"/>
<path d="M176.976 47.6201C176.909 47.7065 176.838 47.7928 176.767 47.8792C176.838 47.7928 176.909 47.7065 176.976 47.6201Z" fill="white"/>
<path d="M177.708 46.5801C177.636 46.6939 177.561 46.8038 177.486 46.9176C177.561 46.8077 177.636 46.6939 177.708 46.5801Z" fill="white"/>
<path d="M177.474 46.9336C177.403 47.0396 177.332 47.1416 177.257 47.2437C177.332 47.1416 177.403 47.0356 177.474 46.9336Z" fill="white"/>
<path d="M177.711 46.572C177.786 46.4542 177.857 46.3365 177.928 46.2188C177.857 46.3365 177.786 46.4542 177.711 46.572Z" fill="white"/>
<path d="M177.233 47.2822C177.162 47.3803 177.091 47.4745 177.02 47.5687C177.091 47.4745 177.166 47.3803 177.233 47.2822Z" fill="white"/>
<path d="M172.394 46.2578C172.465 46.3756 172.536 46.4933 172.607 46.6071C172.532 46.4933 172.461 46.3756 172.394 46.2578Z" fill="white"/>
<path d="M172.833 46.945C172.757 46.8351 172.682 46.7212 172.611 46.6074C172.682 46.7212 172.757 46.8351 172.833 46.945Z" fill="white"/>
<path d="M173.547 47.9027C173.472 47.8124 173.401 47.7221 173.33 47.6318C173.401 47.7221 173.472 47.8124 173.547 47.9027Z" fill="white"/>
<path d="M174.136 48.5703C174.231 48.6684 174.325 48.7666 174.42 48.8607L174.653 49.0923L174.42 48.8607C174.325 48.7666 174.231 48.6684 174.136 48.5703Z" fill="white"/>
<path d="M173.302 47.5932C173.227 47.4951 173.152 47.3969 173.081 47.2988C173.152 47.3969 173.227 47.499 173.302 47.5932Z" fill="white"/>
<path d="M176.715 47.9463C176.648 48.0287 176.581 48.1072 176.51 48.1857C176.581 48.1072 176.648 48.0287 176.715 47.9463Z" fill="white"/>
<path d="M173.065 47.2749C172.99 47.169 172.915 47.063 172.84 46.957C172.915 47.063 172.99 47.1729 173.065 47.2749Z" fill="white"/>
<path d="M175.775 48.9667L175.878 48.8647C175.977 48.7666 176.072 48.6684 176.166 48.5703C176.072 48.6684 175.977 48.7666 175.878 48.8647L175.775 48.9667Z" fill="white"/>
<path d="M176.443 48.2637C176.376 48.3422 176.305 48.4167 176.233 48.4952C176.305 48.4207 176.376 48.3422 176.443 48.2637Z" fill="white"/>
<path d="M174.077 48.5031C174.005 48.4246 173.93 48.3461 173.863 48.2676C173.934 48.3461 174.005 48.4246 174.077 48.5031Z" fill="white"/>
<path d="M173.804 48.2014C173.733 48.1189 173.662 48.0365 173.591 47.9541C173.662 48.0365 173.733 48.1189 173.804 48.2014Z" fill="white"/>
<path d="M178.291 36.4895C177.758 34.5074 176.715 32.6353 175.151 31.0811C173.586 32.6353 172.539 34.5074 172.01 36.4895C170.015 37.0193 168.131 38.0555 166.566 39.6097C168.131 41.164 170.015 42.204 172.01 42.73C172.543 44.712 173.586 46.5842 175.151 48.1384C176.715 46.5842 177.762 44.712 178.291 42.73C180.286 42.2001 182.17 41.164 183.735 39.6097C182.17 38.0555 180.286 37.0154 178.291 36.4895Z" fill="white"/>
<path d="M240 57.7187L239.992 57.7265L233.454 57.7148L234.418 44.5234L234.793 39.3779L224.052 42.7768C224.258 42.8593 224.854 43.1497 225.15 43.7659C225.253 43.9778 225.32 44.229 225.32 44.5234L223.708 66.7144L223.681 66.7694L222.689 80.7182L222.701 80.5377C222.543 82.7278 220.698 83.6776 220.698 83.6776H222.48C231.518 83.709 231.783 81.303 232.202 75.0586L232.585 69.6698L233.217 60.9881L237.345 60.9959C237.784 60.9959 238.21 61.1608 238.522 61.4669C238.787 61.722 238.945 61.9928 239.012 62.1184L239.277 60.9371L239.972 57.8286L239.996 57.7187V57.7108L240 57.7187Z" fill="white"/>
<path d="M194.275 4.39956C184.174 -7.80276 155.198 6.46795 115.517 33.6867C155.581 9.63529 181.681 -4.04277 189.941 5.93417C193.434 10.1534 188.95 19.467 181.788 28.7336C180.954 29.8129 181.053 31.3357 182.021 32.2973C183.202 33.4708 185.158 33.3217 186.145 31.9833C195.116 19.832 199.134 10.2672 194.275 4.39956V4.39956Z" fill="white"/>
<path d="M114.54 98.7845C116.451 97.6762 116.95 95.1406 115.598 93.3999C114.414 91.8821 112.262 91.5508 110.675 92.641C81.7698 112.454 50.8598 123.062 36 119.157L32 120.607C46.1782 129.687 78.5071 119.626 114.54 98.7845Z" fill="white"/>
</g>
<path d="M184.72 157.79C182.77 157.79 180.993 157.465 179.39 156.815C177.83 156.165 176.487 155.255 175.36 154.085C174.277 152.915 173.432 151.528 172.825 149.925C172.262 148.322 171.98 146.567 171.98 144.66C171.98 142.753 172.262 140.998 172.825 139.395C173.432 137.792 174.277 136.405 175.36 135.235C176.487 134.065 177.83 133.155 179.39 132.505C180.993 131.855 182.77 131.53 184.72 131.53H213.775C215.812 131.53 217.61 131.855 219.17 132.505C220.773 133.155 222.117 134.065 223.2 135.235C224.283 136.405 225.107 137.792 225.67 139.395C226.233 140.998 226.515 142.753 226.515 144.66C226.515 146.567 226.233 148.322 225.67 149.925C225.107 151.528 224.283 152.915 223.2 154.085C222.117 155.255 220.773 156.165 219.17 156.815C217.61 157.465 215.812 157.79 213.775 157.79H184.72ZM203.57 104.49C203.873 104.88 204.09 105.27 204.22 105.66C204.393 106.05 204.437 106.483 204.35 106.96L201.815 129.06L187.71 129.905L189.92 110.405H170.225L168.275 98.38H197.395C198.392 98.38 199.193 98.77 199.8 99.55L203.57 104.49ZM224.89 107.935H231.65V119.31H224.89V129.58H210.59V104.49L207.275 97.405H224.89V107.935ZM209.55 146.74C210.373 146.74 211.023 146.567 211.5 146.22C211.977 145.83 212.215 145.31 212.215 144.66C212.215 144.01 211.977 143.512 211.5 143.165C211.023 142.775 210.373 142.58 209.55 142.58H188.945C188.122 142.58 187.472 142.775 186.995 143.165C186.518 143.512 186.28 144.01 186.28 144.66C186.28 145.31 186.518 145.83 186.995 146.22C187.472 146.567 188.122 146.74 188.945 146.74H209.55ZM292.425 134.845V157.79H244.975C244.022 157.79 243.22 157.443 242.57 156.75L238.93 152.915C238.28 152.222 237.955 151.42 237.955 150.51V134.845H292.425ZM274.94 122.43V132.18H241.595C240.642 132.18 239.84 131.833 239.19 131.14L235.55 127.305C234.9 126.612 234.575 125.81 234.575 124.9V110.535H258.69V108.13H234.575V98.38H265.645C266.598 98.38 267.4 98.7267 268.05 99.42L271.69 103.255C272.34 103.992 272.665 104.793 272.665 105.66V119.96H248.55V122.43H274.94ZM292.425 97.405V133.22H278.125V104.49L274.81 97.405H292.425ZM278.125 144.595H252.255V148.04H278.125V144.595Z" fill="white"/>
<path d="M32.59 98.38C37.3133 98.38 40.7583 99.5283 42.925 101.825C45.135 104.078 46.24 107.48 46.24 112.03V122.105C46.24 126.655 45.135 130.078 42.925 132.375C40.7583 134.628 37.3133 135.755 32.59 135.755H24.465L19.72 123.795H28.04C31.0733 123.795 32.59 122.278 32.59 119.245V114.89C32.59 111.857 31.0733 110.34 28.04 110.34H18.55V154.215H4.9V107.09L0.61 98.38H32.59ZM70.8136 155.19C67.9969 155.19 65.3752 154.908 62.9486 154.345C60.5219 153.782 58.3986 152.915 56.5786 151.745C54.8019 150.575 53.3936 149.102 52.3536 147.325C51.3136 145.548 50.7936 143.447 50.7936 141.02V111.575C50.7936 109.148 51.3136 107.047 52.3536 105.27C53.3936 103.493 54.8019 102.02 56.5786 100.85C58.3986 99.68 60.5219 98.8133 62.9486 98.25C65.3752 97.6867 67.9969 97.405 70.8136 97.405C74.2802 97.405 77.2486 97.7517 79.7186 98.445C82.1886 99.095 84.2469 100.135 85.8936 101.565C87.5402 102.995 88.8186 104.815 89.7286 107.025C90.6386 109.235 91.2669 111.857 91.6136 114.89L77.8986 116.84C77.4219 114.37 76.7286 112.528 75.8186 111.315C74.9086 110.058 73.4569 109.43 71.4636 109.43C69.7302 109.43 68.2352 109.863 66.9786 110.73C65.7219 111.597 65.0936 112.897 65.0936 114.63V137.965C65.0936 139.698 65.7219 140.998 66.9786 141.865C68.2352 142.732 69.7302 143.165 71.4636 143.165C73.6302 143.165 75.2336 142.493 76.2736 141.15C77.3136 139.763 78.0936 137.748 78.6136 135.105L92.2636 137.055C91.8736 140.218 91.2019 142.948 90.2486 145.245C89.3386 147.498 88.0386 149.362 86.3486 150.835C84.6586 152.308 82.5352 153.392 79.9786 154.085C77.4219 154.822 74.3669 155.19 70.8136 155.19ZM112.904 157.79C110.954 157.79 109.177 157.465 107.574 156.815C106.014 156.208 104.67 155.342 103.544 154.215C102.46 153.132 101.615 151.832 101.009 150.315C100.445 148.798 100.164 147.13 100.164 145.31C100.164 143.49 100.445 141.822 101.009 140.305C101.615 138.788 102.46 137.488 103.544 136.405C104.67 135.278 106.014 134.412 107.574 133.805C109.177 133.155 110.954 132.83 112.904 132.83H141.959C143.995 132.83 145.794 133.155 147.354 133.805C148.957 134.412 150.3 135.278 151.384 136.405C152.467 137.488 153.29 138.788 153.854 140.305C154.417 141.822 154.699 143.49 154.699 145.31C154.699 147.13 154.417 148.798 153.854 150.315C153.29 151.875 152.467 153.197 151.384 154.28C150.3 155.407 148.957 156.273 147.354 156.88C145.794 157.487 143.995 157.79 141.959 157.79H112.904ZM133.834 98.38V129.125H104.779C103.825 129.125 103.024 128.778 102.374 128.085L98.7336 124.25C98.0836 123.557 97.7586 122.755 97.7586 121.845V105.465L94.4436 98.38H111.409V103.385H120.184V98.38H133.834ZM153.074 108.585H159.834V119.96H153.074V130.88H138.774V104.49L135.459 97.405H153.074V108.585ZM137.734 147.39C138.557 147.39 139.207 147.217 139.684 146.87C140.16 146.48 140.399 145.96 140.399 145.31C140.399 144.66 140.16 144.162 139.684 143.815C139.207 143.425 138.557 143.23 137.734 143.23H117.129C116.305 143.23 115.655 143.425 115.179 143.815C114.702 144.162 114.464 144.66 114.464 145.31C114.464 145.96 114.702 146.48 115.179 146.87C115.655 147.217 116.305 147.39 117.129 147.39H137.734ZM120.184 113.785H111.409V118.725H120.184V113.785Z" fill="#FE4879"/>
<path fill-rule="evenodd" clip-rule="evenodd" d="M113.269 98.8697C115.12 97.7751 115.854 94.9514 114.542 93.236C113.393 91.7403 110.577 91.6507 109.04 92.7272C97.4101 100.858 85.5019 107.306 74.5295 111.776C71.2318 113.12 68.0186 114.284 64.9229 115.262C64.9321 115.531 64.9596 115.78 64.9995 115.999V120.389C78.982 116.712 95.6702 109.253 113.269 98.8697Z" fill="white"/>
<defs>
<clipPath id="clip0_28_476">
<rect width="184" height="113" fill="white" transform="translate(56)"/>
</clipPath>
</defs>
</svg>
