<svg width="960" height="2037" viewBox="0 0 960 2037" fill="none" xmlns="http://www.w3.org/2000/svg">
<path fill-rule="evenodd" clip-rule="evenodd" d="M0.786133 2036.37L0.792175 2036.37L0.782471 2036.37L0.786133 2036.37ZM0.786133 2036.37C-42.2554 1990.73 -82.3913 1942.11 -119.356 1890.83C-226.382 1742.28 -304.889 1572.91 -350.433 1392.32C-463.331 1360.49 -571.858 1313.27 -673.295 1251.83C-725.077 1220.42 -774.847 1185.43 -822.281 1147.07C-870.813 1107.77 -916.821 1065.09 -960 1019.31C-916.847 973.557 -870.868 930.904 -822.368 891.632C-681.874 777.93 -521.672 694.617 -350.871 646.43C-305.428 465.335 -226.856 295.476 -119.623 146.514C-82.5837 95.0941 -42.3564 46.347 0.792175 0.595703C43.9705 46.3784 84.2236 95.1608 121.284 146.619C157.459 196.912 190.462 249.682 220.079 304.586C278.025 412.138 322.565 527.207 352.583 646.912C522.901 695.219 682.635 778.461 822.748 891.93C871.108 931.118 916.96 973.671 960 1019.3C916.931 1064.97 871.046 1107.56 822.649 1146.77C775.343 1185.05 725.712 1219.98 674.076 1251.35C572.926 1312.71 464.711 1359.93 352.129 1391.84C322.034 1511.21 277.497 1625.95 219.627 1733.2C190.048 1787.95 157.1 1840.57 120.999 1890.73C84.0157 1942.05 43.8563 1990.7 0.786133 2036.37ZM-101.201 280.831C-69.8668 237.333 -35.8358 196.096 0.666382 157.393C37.1928 196.121 71.2448 237.387 102.596 280.916C133.204 323.464 161.129 368.108 186.189 414.557C235.208 505.542 272.887 602.886 298.28 704.151C442.364 744.998 577.493 815.413 696.015 911.409C736.928 944.567 775.719 980.57 812.131 1019.18C775.696 1057.81 736.879 1093.83 695.938 1127.01C655.922 1159.39 613.938 1188.94 570.26 1215.48C484.688 1267.38 393.141 1307.33 297.898 1334.32C272.439 1435.31 234.762 1532.38 185.804 1623.11C160.777 1669.43 132.9 1713.95 102.354 1756.38C71.0702 1799.79 37.0992 1840.95 0.666382 1879.58C-35.7467 1840.97 -69.7012 1799.84 -100.973 1756.46C-191.511 1630.79 -257.925 1487.52 -296.454 1334.75C-391.963 1307.82 -483.773 1267.86 -569.585 1215.88C-613.39 1189.31 -655.494 1159.71 -695.621 1127.26C-736.677 1094.02 -775.598 1057.92 -812.127 1019.19C-775.622 980.485 -736.728 944.404 -695.701 911.183C-576.849 814.994 -441.324 744.514 -296.834 703.748C-258.39 550.546 -191.919 406.849 -101.201 280.831ZM-243.175 1276.4C-200.601 1445.04 -116.769 1598.77 -0.16095 1722.03L-0.148865 1722.03C58.8661 1659.52 109.785 1588.98 151.27 1512.25C191.31 1438.04 222.124 1358.65 242.945 1276.06C320.84 1253.98 395.714 1221.31 465.7 1178.86C538.062 1134.87 604.59 1080.88 663.535 1018.31C547.28 894.676 402.295 805.789 243.244 760.637C222.476 677.811 191.661 598.191 151.57 523.773C110.029 446.826 59.0024 376.091 -0.16095 313.435C-117.053 437.002 -201.006 591.18 -243.487 760.298C-402.992 805.344 -548.405 894.362 -664.948 1018.31C-605.855 1081.04 -539.143 1135.15 -466.571 1179.2C-396.384 1221.7 -321.291 1254.38 -243.175 1276.4ZM-189.44 817.614C-156.416 686.145 -91.1542 566.29 -0.286743 470.23L-0.274658 470.214C45.7174 518.922 85.3838 573.909 117.678 633.726C148.846 691.581 172.803 753.479 188.949 817.871C312.593 852.961 425.302 922.059 515.669 1018.17C469.845 1066.81 418.127 1108.78 361.874 1142.98C307.468 1175.98 249.262 1201.38 188.707 1218.55C172.519 1282.75 148.563 1344.47 117.436 1402.16C85.1858 1461.8 45.6025 1516.64 -0.274658 1565.23C-90.9224 1469.41 -156.091 1349.91 -189.186 1218.81C-249.916 1201.69 -308.294 1176.28 -362.859 1143.24C-419.274 1109 -471.136 1066.94 -517.074 1018.17C-426.476 921.825 -313.435 852.628 -189.44 817.614ZM-0.402893 1407.67C-64.9644 1339.43 -111.379 1254.32 -134.951 1160.94C-178.201 1148.75 -219.776 1130.66 -258.636 1107.12C-298.814 1082.74 -335.749 1052.78 -368.466 1018.05C-303.942 949.427 -223.433 900.139 -135.123 875.197C-111.601 781.567 -65.1198 696.21 -0.402893 627.8C32.353 662.489 60.6037 701.651 83.6034 744.252C105.801 785.453 122.863 829.533 134.363 875.39C222.42 900.391 302.69 949.603 367.055 1018.05C334.422 1052.69 297.591 1082.58 257.53 1106.94C218.781 1130.44 177.326 1148.53 134.198 1160.76C122.67 1206.49 105.608 1250.44 83.439 1291.53C60.4702 1334.01 32.2786 1373.06 -0.39563 1407.66L-0.402893 1407.67ZM-82.0387 931.5C-67.8069 874.848 -39.6829 823.202 -0.525024 781.81C19.2956 802.794 36.3912 826.485 50.3105 852.256C63.744 877.184 74.0699 903.854 81.0298 931.6C134.306 946.722 182.87 976.498 221.806 1017.91C202.059 1038.88 179.772 1056.96 155.53 1071.7C132.086 1085.92 107.005 1096.87 80.9113 1104.27C73.9332 1131.94 63.6078 1158.53 50.192 1183.39C36.2957 1209.09 19.2386 1232.72 -0.531067 1253.66C-39.5909 1212.38 -67.6733 1160.88 -81.9371 1104.4C-108.105 1097.02 -133.259 1086.07 -156.769 1071.82C-181.079 1057.07 -203.426 1038.94 -223.221 1017.93C-184.182 976.41 -135.47 946.59 -82.0387 931.5ZM-72.5351 1017.8C-59.725 1031.42 -43.7391 1041.2 -26.2047 1046.15C-21.5258 1064.67 -12.3164 1081.56 0.492065 1095.1C13.3077 1081.55 22.5192 1064.65 27.1937 1046.11C44.6777 1041.16 60.6158 1031.39 73.3936 1017.8C60.6237 1004.22 44.6982 994.455 27.2275 989.495C22.5652 970.904 13.3404 953.955 0.492065 940.373C-12.3489 953.946 -21.5717 970.882 -26.2385 989.459C-43.7596 994.407 -59.733 1004.18 -72.5351 1017.8Z" fill="white"/>
</svg>
