<svg width="960" height="1952" viewBox="0 0 960 1952" fill="none" xmlns="http://www.w3.org/2000/svg">
<circle cx="960" cy="992" r="959" transform="rotate(90 960 992)" stroke="white" stroke-width="2"/>
<path d="M110 807.676C258.752 666.388 444.283 564.815 647.817 513.237C674.395 418.587 713.831 327.602 765.137 242.56C818.3 154.629 883.599 73.7972 959.312 2.19771C1108.89 143.414 1216.31 319.609 1270.65 512.873C1474.77 564.338 1660.85 666.052 1810 807.676C1734.38 879.359 1649.02 941.184 1556.15 991.519C1466.34 1040.1 1370.25 1077.44 1270.29 1102.6C1215.79 1295.31 1108.52 1470.97 959.312 1611.83C883.792 1540.41 818.632 1459.81 765.542 1372.13C714.302 1287.33 674.868 1196.61 648.222 1102.23C548.542 1077 452.728 1039.66 363.168 991.145C270.568 940.881 185.433 879.178 110 807.676ZM1243.51 807.388C1193.76 760.154 1131.7 726.23 1063.62 709.066C1045.49 644.606 1009.66 585.84 959.767 538.742C909.843 585.872 873.996 644.683 855.875 709.191C787.994 726.394 726.117 760.269 676.505 807.388C726.15 854.539 788.075 888.428 856.007 905.624C874.169 969.948 909.965 1028.59 959.767 1075.59C1009.53 1028.62 1045.31 970.031 1063.48 905.758C1131.61 888.607 1193.73 854.659 1243.51 807.388Z" stroke="white" stroke-width="2" stroke-miterlimit="10"/>
</svg>
