<svg width="27" height="26" viewBox="0 0 27 26" fill="none" xmlns="http://www.w3.org/2000/svg">
<path d="M13.6095 25C11.5028 22.9 9.98837 20.2807 9.21932 17.4073C7.80807 17.0321 6.45145 16.4753 5.18347 15.751C3.8724 15.0005 2.66717 14.0786 1.59961 13.0097C3.70518 10.8981 6.33228 9.38156 9.2139 8.61429C9.98125 5.73267 11.4978 3.10558 13.6095 1C14.6783 2.06753 15.6001 3.27271 16.3506 4.58371C17.0749 5.85166 17.6317 7.20822 18.0069 8.61943C20.8802 9.38884 23.4994 10.9033 25.5996 13.0097C24.5347 14.0759 23.3329 14.9958 22.0256 15.7453C20.7613 16.4687 19.4086 17.0254 18.0013 17.4016C17.6251 18.8088 17.0684 20.1615 16.345 21.4259C15.5956 22.7332 14.6757 23.9351 13.6096 25H13.6095ZM13.6052 8.99757C12.9009 9.69984 12.3951 10.5761 12.1392 11.5371C11.1781 11.7931 10.3018 12.2989 9.59961 13.0033C10.3023 13.7081 11.1792 14.2142 12.141 14.47C12.3975 15.4283 12.9026 16.3019 13.6052 17.0023C14.3082 16.3014 14.8135 15.4272 15.0699 14.4681C16.029 14.2117 16.9033 13.7064 17.6042 13.0033C16.9038 12.3007 16.0302 11.7956 15.0719 11.5391C14.8162 10.5773 14.3101 9.7004 13.6053 8.99771L13.6052 8.99757Z" stroke="white" stroke-opacity="0.3" stroke-miterlimit="10"/>
</svg>
